<svg width="90" height="90" viewBox="0 0 90 90" fill="none" xmlns="http://www.w3.org/2000/svg">
<path d="M0 4C0 1.79086 1.79086 0 4 0H86C88.2091 0 90 1.79086 90 4V86C90 88.2091 88.2091 90 86 90H4C1.79086 90 0 88.2091 0 86V4Z" fill="#49BBBD" fill-opacity="0.3"/>
<path d="M30.7716 56.5033C16.2362 50.3727 21.9726 29.6794 32.0627 26.2603C36.2485 24.8419 40.8672 29.5475 40.8377 32.4691C40.8248 33.7323 40.173 34.964 39.4939 36.2472C38.6023 37.9321 37.6636 39.7057 38.0622 41.7562C38.7644 45.3687 39.551 51.4641 37.5243 54.3575C35.4975 57.2509 33.4593 57.6369 30.7716 56.5033Z" fill="#49BBBD"/>
<path d="M59.9371 26.2603C70.0272 29.6794 75.7637 50.3727 61.2283 56.5033C58.5404 57.6369 56.5023 57.2509 54.4756 54.3575C52.4489 51.4641 53.2355 45.3687 53.9376 41.7562C54.3362 39.7057 53.3976 37.9321 52.5059 36.2472C51.8268 34.964 51.175 33.7323 51.1623 32.4691C51.1327 29.5475 55.7514 24.8419 59.9371 26.2603Z" fill="#49BBBD"/>
<path d="M52.2711 45.8352C52.3629 47.1701 52.3637 47.1699 52.3645 47.1699L52.3661 47.1698L52.3691 47.1695L52.3743 47.1691L52.3816 47.1686L52.3855 47.1682C52.3832 47.1685 52.3719 47.1698 52.3527 47.1729C52.3143 47.179 52.247 47.1919 52.1609 47.2162C51.9855 47.266 51.7543 47.357 51.5279 47.5183C51.1403 47.7944 50.5704 48.4074 50.5704 49.9543V69.3087C50.5704 69.3088 50.5704 69.3088 49.2324 69.3088C47.8945 69.3088 47.8945 69.3083 47.8945 69.3082V49.9543C47.8945 47.591 48.8439 46.1446 49.9757 45.3386C50.5089 44.9589 51.0374 44.7534 51.4317 44.6417C51.6305 44.5854 51.8007 44.5514 51.9283 44.5309C51.9923 44.5206 52.0463 44.5137 52.0885 44.509C52.1096 44.5066 52.128 44.5047 52.1431 44.5033L52.1635 44.5016L52.1721 44.5011L52.1759 44.5008L52.1776 44.5007C52.1785 44.5005 52.1793 44.5005 52.2711 45.8352Z" fill="#49BBBD"/>
<path d="M39.7281 45.8352C39.6363 47.1701 39.6354 47.1699 39.6346 47.1699L39.6331 47.1698L39.63 47.1695L39.6249 47.1691L39.6174 47.1686C39.6149 47.1683 39.6135 47.1682 39.6133 47.1682C39.6156 47.1685 39.6273 47.1698 39.6463 47.1729C39.6849 47.179 39.7522 47.1919 39.8382 47.2162C40.0136 47.266 40.2448 47.357 40.4713 47.5183C40.8589 47.7944 41.4288 48.4074 41.4288 49.9543V69.3087C41.4288 69.3088 41.4288 69.3088 42.7667 69.3088C44.1047 69.3088 44.1047 69.3083 44.1047 69.3082V49.9543C44.1047 47.591 43.1551 46.1446 42.0234 45.3386C41.4902 44.9589 40.9618 44.7534 40.5673 44.6417C40.3687 44.5854 40.1985 44.5514 40.0708 44.5309C40.0068 44.5206 39.9528 44.5137 39.9106 44.509C39.8894 44.5066 39.8712 44.5047 39.856 44.5033L39.8355 44.5016L39.8271 44.5011L39.8233 44.5008L39.8215 44.5007C39.8207 44.5005 39.8197 44.5005 39.7281 45.8352Z" fill="#49BBBD"/>
</svg>
