<svg width="90" height="90" viewBox="0 0 90 90" fill="none" xmlns="http://www.w3.org/2000/svg">
<path d="M0 4C0 1.79086 1.79086 0 4 0H86C88.2091 0 90 1.79086 90 4V86C90 88.2091 88.2091 90 86 90H4C1.79086 90 0 88.2091 0 86V4Z" fill="#00CBB8" fill-opacity="0.3"/>
<path d="M29.9537 29.3395C31.4282 29.3395 32.6234 28.1442 32.6234 26.6698C32.6234 25.1953 31.4282 24 29.9537 24C28.9655 24 28.1028 24.5369 27.6412 25.3349H27.2839C25.0722 25.3349 23.2793 27.1278 23.2793 29.3395V41.3534C22.5421 41.3534 21.9382 41.9524 22.0051 42.6865C22.3154 46.0921 23.8075 49.2986 26.2452 51.7363C28.0328 53.5239 30.2337 54.803 32.6234 55.4804V58.7068C32.6234 60.4507 33.7381 61.9341 35.2937 62.4837C35.3506 67.7798 39.6616 72.0556 44.9711 72.0556C50.316 72.0556 54.6489 67.7227 54.6489 62.3777V57.0382C54.6489 54.2735 56.89 52.0324 59.6547 52.0324C62.4194 52.0324 64.6605 54.2735 64.6605 57.0382V60.2695C63.1051 60.8192 61.9907 62.3027 61.9907 64.0463C61.9907 66.2581 63.7836 68.0509 65.9954 68.0509C68.2071 68.0509 70 66.2581 70 64.0463C70 62.3027 68.8856 60.8192 67.3302 60.2695V57.0382C67.3302 52.7992 63.8937 49.3627 59.6547 49.3627C55.4157 49.3627 51.9792 52.7992 51.9792 57.0382V62.3777C51.9792 66.2482 48.8415 69.3858 44.9711 69.3858C41.1358 69.3858 38.0202 66.3051 37.9638 62.4833C39.5188 61.9333 40.6327 60.4502 40.6327 58.7068V55.4804C43.0224 54.803 45.2235 53.5239 47.011 51.7363C49.4488 49.2986 50.9408 46.0921 51.2511 42.6865C51.3181 41.9524 50.7141 41.3534 49.9768 41.3534V29.3395C49.9768 27.1278 48.184 25.3349 45.9722 25.3349H45.615C45.1534 24.5369 44.2907 24 43.3025 24C41.828 24 40.6327 25.1953 40.6327 26.6698C40.6327 28.1442 41.828 29.3395 43.3025 29.3395C44.2907 29.3395 45.1534 28.8026 45.615 28.0046H45.9722C46.7095 28.0046 47.3071 28.6023 47.3071 29.3395V41.3534H47.5867C46.8495 41.3534 46.2614 41.954 46.1595 42.6841C45.8718 44.7448 44.9213 46.6702 43.4331 48.1585C41.6283 49.9632 39.1805 50.9772 36.6281 50.9772C34.0758 50.9772 31.6279 49.9632 29.8231 48.1585C28.3349 46.6702 27.3845 44.7448 27.0968 42.6841C26.9949 41.954 26.4067 41.3534 25.6695 41.3534H25.9491V29.3395C25.9491 28.6023 26.5467 28.0046 27.2839 28.0046H27.6412C28.1028 28.8026 28.9655 29.3395 29.9537 29.3395Z" fill="#00CBB8"/>
</svg>
