<svg width="90" height="90" viewBox="0 0 90 90" fill="none" xmlns="http://www.w3.org/2000/svg">
<path d="M0 4C0 1.79086 1.79086 0 4 0H86C88.2091 0 90 1.79086 90 4V86C90 88.2091 88.2091 90 86 90H4C1.79086 90 0 88.2091 0 86V4Z" fill="#252641" fill-opacity="0.3"/>
<path d="M27.666 54C27.666 53.2636 28.2629 52.6666 28.9993 52.6666H47.666C48.4024 52.6666 48.9993 53.2636 48.9993 54C48.9993 54.7364 48.4024 55.3333 47.666 55.3333H28.9993C28.2629 55.3333 27.666 54.7364 27.666 54Z" fill="#252641"/>
<path d="M28.9993 59.3334C28.2629 59.3334 27.666 59.9303 27.666 60.6667C27.666 61.4031 28.2629 62 28.9993 62H47.666C48.4024 62 48.9993 61.4031 48.9993 60.6667C48.9993 59.9303 48.4024 59.3334 47.666 59.3334H28.9993Z" fill="#252641"/>
<path d="M31.666 42V38H34.3327V42H38.3327V44.6667H34.3327V48.6667H31.666V44.6667H27.666V42H31.666Z" fill="#252641"/>
<path fill-rule="evenodd" clip-rule="evenodd" d="M33 22C30.7908 22 29 23.7909 29 26H25C22.7909 26 21 27.7908 21 30V66C21 68.2092 22.7909 70 25 70H51.6667C53.8759 70 55.6667 68.2092 55.6667 66V30C55.6667 27.7908 53.8759 26 51.6667 26H47.6667C47.6667 23.7909 45.8759 22 43.6667 22H33ZM43.6667 30C44.4031 30 45 29.4031 45 28.6667V26C45 25.2636 44.4031 24.6667 43.6667 24.6667H33C32.2636 24.6667 31.6667 25.2636 31.6667 26V28.6667C31.6667 29.4031 32.2636 30 33 30H43.6667ZM29 28.6667C29 30.8759 30.7908 32.6667 33 32.6667H43.6667C45.8759 32.6667 47.6667 30.8759 47.6667 28.6667H51.6667C52.4031 28.6667 53 29.2636 53 30V66C53 66.7364 52.4031 67.3333 51.6667 67.3333H25C24.2636 67.3333 23.6667 66.7364 23.6667 66V30C23.6667 29.2636 24.2636 28.6667 25 28.6667H29Z" fill="#252641"/>
<path fill-rule="evenodd" clip-rule="evenodd" d="M61 36.6666C61 34.4574 62.7908 32.6666 65 32.6666C67.2092 32.6666 69 34.4574 69 36.6666V63.737L65 69.737L61 63.737V36.6666ZM65 35.3333C64.2636 35.3333 63.6667 35.9302 63.6667 36.6666V39.3333H66.3333V36.6666C66.3333 35.9302 65.7364 35.3333 65 35.3333ZM65 64.9296L66.3333 62.9296V42H63.6667V62.9296L65 64.9296Z" fill="#252641"/>
</svg>
