<svg width="90" height="90" viewBox="0 0 90 90" fill="none" xmlns="http://www.w3.org/2000/svg">
<path d="M0 4C0 1.79086 1.79086 0 4 0H86C88.2091 0 90 1.79086 90 4V86C90 88.2091 88.2091 90 86 90H4C1.79086 90 0 88.2091 0 86V4Z" fill="#EE645B" fill-opacity="0.3"/>
<path d="M37.4218 43.2632V38.2106H32.3691V43.2632H37.4218Z" fill="#EE645B"/>
<path d="M37.4218 45.7894V50.8421H32.3691V45.7894H37.4218Z" fill="#EE645B"/>
<path d="M47.5253 43.2632V38.2106H42.4727V43.2632H47.5253Z" fill="#EE645B"/>
<path d="M47.5253 45.7894V50.8421H42.4727V45.7894H47.5253Z" fill="#EE645B"/>
<path d="M57.6308 43.2632V38.2106H52.5781V43.2632H57.6308Z" fill="#EE645B"/>
<path d="M57.6308 45.7894V50.8421H52.5781V45.7894H57.6308Z" fill="#EE645B"/>
<path fill-rule="evenodd" clip-rule="evenodd" d="M39.9474 18H50.0526C52.1456 18 53.8421 19.6966 53.8421 21.7895V30.6316H60.1579C62.2508 30.6316 63.9474 32.3281 63.9474 34.4211V66H69V68.5263H21V66H26.0526V34.4211C26.0526 32.3281 27.7492 30.6316 29.8421 30.6316H36.1579V21.7895C36.1579 19.6966 37.8544 18 39.9474 18ZM28.5789 66H39.9474V58.4211C39.9474 55.6306 42.2096 53.3684 45 53.3684C47.7904 53.3684 50.0526 55.6306 50.0526 58.4211V66H61.4211V34.4211C61.4211 33.7234 60.8555 33.1579 60.1579 33.1579H53.6265C53.1063 34.6297 51.7026 35.6842 50.0526 35.6842H39.9474C38.2974 35.6842 36.8937 34.6297 36.3735 33.1579H29.8421C29.1445 33.1579 28.5789 33.7234 28.5789 34.4211V66ZM46.2632 23.0526C46.2632 22.355 45.6976 21.7895 45 21.7895C44.3024 21.7895 43.7368 22.355 43.7368 23.0526V25.5789H41.2105C40.5129 25.5789 39.9474 26.1445 39.9474 26.8421C39.9474 27.5397 40.5129 28.1053 41.2105 28.1053H43.7368V30.6316C43.7368 31.3292 44.3024 31.8947 45 31.8947C45.6976 31.8947 46.2632 31.3292 46.2632 30.6316V28.1053H48.7895C49.4871 28.1053 50.0526 27.5397 50.0526 26.8421C50.0526 26.1445 49.4871 25.5789 48.7895 25.5789H46.2632V23.0526Z" fill="#EE645B"/>
</svg>
