<svg width="90" height="90" viewBox="0 0 90 90" fill="none" xmlns="http://www.w3.org/2000/svg">
<path d="M0 4C0 1.79086 1.79086 0 4 0H86C88.2091 0 90 1.79086 90 4V86C90 88.2091 88.2091 90 86 90H4C1.79086 90 0 88.2091 0 86V4Z" fill="#5B72EE" fill-opacity="0.3"/>
<path fill-rule="evenodd" clip-rule="evenodd" d="M43.4872 53.3464L35.2353 58.1107C32.631 59.6143 31.7388 62.9444 33.2424 65.5485C34.7458 68.1528 38.0759 69.0451 40.6802 67.5415L48.9321 62.7772L43.4872 53.3464ZM33.8741 55.753C29.9677 58.0083 28.6293 63.0034 30.8846 66.9097C33.14 70.8162 38.135 72.1545 42.0414 69.8992L52.0616 64.1141C52.3871 63.9261 52.4987 63.5098 52.3107 63.1844L44.824 50.217C44.636 49.8914 44.2198 49.7799 43.8943 49.9679L33.8741 55.753Z" fill="#5B72EE"/>
<path fill-rule="evenodd" clip-rule="evenodd" d="M46.1867 52.5746L55.0281 47.47C57.3068 46.1544 60.2206 46.9352 61.5362 49.2139C62.8519 51.4927 62.0711 54.4064 59.7924 55.722L50.951 60.8266L46.1867 52.5746ZM53.6669 45.1124C57.2477 43.045 61.8265 44.2718 63.8939 47.8527C65.9613 51.4335 64.7344 56.0124 61.1536 58.0798L50.544 64.2053C50.2184 64.3931 49.8021 64.2816 49.6141 63.9562L42.808 52.1676C42.6202 51.8421 42.7317 51.4259 43.0573 51.2379L53.6669 45.1124Z" fill="#5B72EE"/>
<path fill-rule="evenodd" clip-rule="evenodd" d="M52.3107 63.1843C52.4987 63.5098 52.3871 63.9261 52.0616 64.1141L42.0414 69.8992C38.135 72.1545 33.14 70.8162 30.8846 66.9097C28.6293 63.0034 29.9677 58.0083 33.8741 55.753L43.8943 49.9679C44.2198 49.7799 44.6361 49.8914 44.824 50.217L53.6654 45.1124C57.2463 43.045 61.825 44.2718 63.8924 47.8527C65.9598 51.4335 64.733 56.0124 61.1521 58.0798L52.3107 63.1843ZM46.1853 52.5746L50.9495 60.8266L59.7909 55.722C62.0696 54.4064 62.8504 51.4927 61.5348 49.2139C60.2192 46.9352 57.3053 46.1544 55.0266 47.47L46.1853 52.5746ZM40.6802 67.5415C38.0759 69.0451 34.7458 68.1528 33.2424 65.5485C31.7388 62.9444 32.631 59.6143 35.2353 58.1107L43.4872 53.3464L48.9321 62.7772L40.6802 67.5415Z" fill="#5B72EE"/>
<path fill-rule="evenodd" clip-rule="evenodd" d="M52.3353 35.6649C55.5248 38.8545 60.696 38.8545 63.8855 35.6649C67.0751 32.4754 67.0751 27.3041 63.8855 24.1146C60.696 20.9251 55.5248 20.9251 52.3353 24.1146C49.1457 27.3041 49.1457 32.4754 52.3353 35.6649ZM50.4102 37.59C54.6628 41.8426 61.5579 41.8426 65.8107 37.59C70.0634 33.3373 70.0634 26.4422 65.8107 22.1895C61.5579 17.9368 54.6628 17.9368 50.4102 22.1895C46.1575 26.4422 46.1575 33.3373 50.4102 37.59Z" fill="#5B72EE"/>
<path fill-rule="evenodd" clip-rule="evenodd" d="M64.1258 37.35L50.6504 23.8746L52.0942 22.4308L65.5696 35.9062L64.1258 37.35Z" fill="#5B72EE"/>
<path fill-rule="evenodd" clip-rule="evenodd" d="M39.3757 42.6886L32.6974 26.4654L23.7257 41.5421L39.3757 42.6886ZM35.2149 25.4291C34.3608 23.3545 31.5051 23.1453 30.3579 25.0732L21.3862 40.1498C20.3512 41.8891 21.5084 44.1094 23.5268 44.2572L39.1768 45.4039C41.1951 45.5517 42.6636 43.5239 41.8932 41.6523L35.2149 25.4291Z" fill="#5B72EE"/>
</svg>
