<svg width="90" height="90" viewBox="0 0 90 90" fill="none" xmlns="http://www.w3.org/2000/svg">
<path d="M0 4C0 1.79086 1.79086 0 4 0H86C88.2091 0 90 1.79086 90 4V86C90 88.2091 88.2091 90 86 90H4C1.79086 90 0 88.2091 0 86V4Z" fill="#F48C06" fill-opacity="0.3"/>
<path d="M24.8919 41.315C24.8919 33.8875 29.8368 27 36.608 27C41.307 27 44.7937 30.0902 46.9459 34.4739C49.098 30.0904 52.5848 27 57.2838 27C64.0559 27 69 33.8886 69 41.315C69 57.2125 46.9459 68.5135 46.9459 68.5135C46.9459 68.5135 32.0902 61.3618 26.764 49.6306H39.9208L42.0121 45.913L44.4547 54.4627L50.175 47.1081H57.3243V44.5135H48.906L45.5453 48.8346L42.7987 39.2221L38.4035 47.036H25.7738C26.0488 47.9239 26.382 48.789 26.764 49.6306L21 49.6304V47.0358L25.7738 47.036C25.2116 45.2209 24.8919 43.3111 24.8919 41.315Z" fill="#F48C06"/>
</svg>
