<svg width="90" height="90" viewBox="0 0 90 90" fill="none" xmlns="http://www.w3.org/2000/svg">
<path d="M0 4C0 1.79086 1.79086 0 4 0H86C88.2091 0 90 1.79086 90 4V86C90 88.2091 88.2091 90 86 90H4C1.79086 90 0 88.2091 0 86V4Z" fill="#9DCCFF" fill-opacity="0.3"/>
<path d="M34.8119 44.9008C34.8099 44.8988 34.8089 44.8977 34.8089 44.8977M69 55.7457V62H21V55.7457C21 53.7759 22.5026 51.5572 25.324 49.4987C27.9631 47.5732 31.4705 46.0092 34.9718 45.15C34.9879 45.1789 35.0048 45.2106 35.0229 45.2449C35.0617 45.3188 35.1 45.3951 35.1433 45.4813L35.1486 45.4918C35.1884 45.571 35.2341 45.6625 35.2801 45.75L35.6771 46.504H36.5294H42.2667C43.5675 46.5037 44.2024 46.5039 44.8447 46.504C45.4724 46.5042 46.1075 46.5043 47.379 46.504H53.1167H53.9688L54.3658 45.75C54.4796 45.5339 54.66 45.2723 54.8329 45.1058C54.8338 45.105 54.8346 45.1043 54.8353 45.1034C58.4005 45.9519 61.9885 47.5379 64.676 49.4987C67.4975 51.5572 69 53.7759 69 55.7457Z" stroke="#9DCCFF" stroke-width="7.22944"/>
<path fill-rule="evenodd" clip-rule="evenodd" d="M33.706 56.3737C34.4661 56.3737 35.1178 55.7518 35.1178 54.9412C35.1178 54.1305 34.4661 53.5086 33.706 53.5086C32.9459 53.5086 32.2942 54.1305 32.2942 54.9412C32.2942 55.7518 32.9459 56.3737 33.706 56.3737ZM33.706 59.1765C36.0451 59.1765 37.9413 57.2803 37.9413 54.9412C37.9413 52.602 36.0451 50.7059 33.706 50.7059C31.3668 50.7059 29.4707 52.602 29.4707 54.9412C29.4707 57.2803 31.3668 59.1765 33.706 59.1765Z" fill="#9DCCFF"/>
<path d="M56.2942 57.7647H53.4707V54.9411L54.8825 52.1176H60.5295L61.9413 54.9411V57.7647H59.1178" stroke="#9DCCFF" stroke-width="7.22944" stroke-linejoin="round"/>
<path d="M57.707 52.1177C58.4129 51.1764 59.1188 47.1765 58.4129 45.7647" stroke="#9DCCFF" stroke-width="7.22944"/>
<path d="M33.2932 52.1177C32.5873 51.1764 31.8814 47.1765 32.5873 45.7647" stroke="#9DCCFF" stroke-width="7.22944"/>
<path d="M57.7067 26.7059C57.7067 33.7262 52.0211 39.4118 45.0008 39.4118C37.9805 39.4118 32.2949 33.7262 32.2949 26.7059C32.2949 19.6856 37.9805 14 45.0008 14C52.0211 14 57.7067 19.6856 57.7067 26.7059Z" stroke="#9DCCFF" stroke-width="7.22944"/>
</svg>
