<svg width="90" height="90" viewBox="0 0 90 90" fill="none" xmlns="http://www.w3.org/2000/svg">
<path d="M0 4C0 1.79086 1.79086 0 4 0H86C88.2091 0 90 1.79086 90 4V86C90 88.2091 88.2091 90 86 90H4C1.79086 90 0 88.2091 0 86V4Z" fill="#00CBB8" fill-opacity="0.3"/>
<path fill-rule="evenodd" clip-rule="evenodd" d="M52.668 23.6667V21H55.3346V23.6667C55.3346 24.403 55.9316 25 56.668 25H64.668C66.1408 25 67.3346 26.1939 67.3346 27.6667V45C67.3346 45.7364 66.7377 46.3333 66.0013 46.3333C65.2649 46.3333 64.668 45.7364 64.668 45V27.6667H56.668C54.4588 27.6667 52.668 25.8758 52.668 23.6667Z" fill="#00CBB8"/>
<path fill-rule="evenodd" clip-rule="evenodd" d="M55.3346 31.6667V37H58.0013V31.6667H55.3346ZM54.0013 29C53.2649 29 52.668 29.5969 52.668 30.3333V38.3333C52.668 39.0697 53.2649 39.6667 54.0013 39.6667H59.3346C60.071 39.6667 60.668 39.0697 60.668 38.3333V30.3333C60.668 29.5969 60.071 29 59.3346 29H54.0013Z" fill="#00CBB8"/>
<path fill-rule="evenodd" clip-rule="evenodd" d="M55.334 29.6667V25H58.0007V29.6667H55.334Z" fill="#00CBB8"/>
<path fill-rule="evenodd" clip-rule="evenodd" d="M64.7556 46.4219H40.814C39.9916 46.4219 39.2073 46.0925 38.6321 45.5135L40.524 43.6341C40.6009 43.7116 40.7053 43.7552 40.814 43.7552H64.7556C67.6524 43.7552 70.0007 46.1231 70.0007 49.044C70.0007 51.9651 67.6524 54.3329 64.7556 54.3329H36.7636C36.3651 54.3329 35.9829 54.1735 35.7009 53.8896L24.89 43.0056C22.8153 40.9168 22.8153 37.5268 24.89 35.438C26.9601 33.354 30.3129 33.354 32.3829 35.438L40.524 43.6341L38.6321 45.5135L30.4909 37.3173C29.4637 36.2831 27.8092 36.2831 26.782 37.3173C25.7402 38.3661 25.7402 40.0775 26.782 41.1264L37.2512 51.6663H64.7556C66.1588 51.6663 67.334 50.5132 67.334 49.044C67.334 47.5748 66.1587 46.4219 64.7556 46.4219Z" fill="#00CBB8"/>
<path d="M26 43.6666L28.6667 45.2424V61H26V43.6666Z" fill="#00CBB8"/>
<path d="M62 53.6979H64.6667V61.2655H62V53.6979Z" fill="#00CBB8"/>
<path fill-rule="evenodd" clip-rule="evenodd" d="M70 61H22V58.3334H70V61Z" fill="#00CBB8"/>
<path fill-rule="evenodd" clip-rule="evenodd" d="M29.3327 66.3333C30.4372 66.3333 31.3327 65.4378 31.3327 64.3333C31.3327 63.2288 30.4372 62.3333 29.3327 62.3333C28.2281 62.3333 27.3327 63.2288 27.3327 64.3333C27.3327 65.4378 28.2281 66.3333 29.3327 66.3333ZM29.3327 69C31.91 69 33.9993 66.9106 33.9993 64.3333C33.9993 61.756 31.91 59.6666 29.3327 59.6666C26.7553 59.6666 24.666 61.756 24.666 64.3333C24.666 66.9106 26.7553 69 29.3327 69Z" fill="#00CBB8"/>
<path fill-rule="evenodd" clip-rule="evenodd" d="M62.6667 66.3333C63.7712 66.3333 64.6667 65.4378 64.6667 64.3333C64.6667 63.2288 63.7712 62.3333 62.6667 62.3333C61.5621 62.3333 60.6667 63.2288 60.6667 64.3333C60.6667 65.4378 61.5621 66.3333 62.6667 66.3333ZM62.6667 69C65.244 69 67.3333 66.9106 67.3333 64.3333C67.3333 61.756 65.244 59.6666 62.6667 59.6666C60.0893 59.6666 58 61.756 58 64.3333C58 66.9106 60.0893 69 62.6667 69Z" fill="#00CBB8"/>
<path fill-rule="evenodd" clip-rule="evenodd" d="M31.0166 33.1378C32.9809 31.1753 36.1644 31.1764 38.1272 33.1402L40.5274 35.5417C42.4905 37.5057 42.4894 40.6889 40.525 42.6516L38.565 44.6098L36.6802 42.7234L38.6402 40.7652C39.5626 39.8436 39.5632 38.349 38.6414 37.4269L36.2412 35.0254C35.3193 34.103 33.824 34.1025 32.9014 35.0242L30.9414 36.9825L29.0566 35.0961L31.0166 33.1378Z" fill="#00CBB8"/>
</svg>
